<!DOCTYPE svg PUBLIC "-//W3C//DTD SVG 1.1//EN" "http://www.w3.org/Graphics/SVG/1.1/DTD/svg11.dtd"><svg version="1.1" xmlns="http://www.w3.org/2000/svg" xmlns:xlink="http://www.w3.org/1999/xlink" xml:space="preserve"><polygon points="210,103 135,233 210,363 285,233 225,129 210,155 255,233 210,311 165,233 225,129 " fill="#c80050" /><polygon points="210,103 360,103 435,233 285,233 225,129 255,129 300,207 390,207 345,129 225,129 " fill="#c8641e" /><polygon points="285,233 210,363 360,363 435,233 315,233 300,259 390,259 345,337 255,337 315,233 " fill="#c83232" /><polygon points="165,233 195,233 225,181 210,155 " fill="#c83232" /><polygon points="270,155 330,155 345,129 255,129 " fill="#c83232" /><polygon points="195,233 255,233 240,259 210,259 " fill="#c83232" /><polygon points="330,155 345,181 330,207 300,207 " fill="#c83232" /><polygon points="330,311 300,311 285,285 300,259 " fill="#c80050" /><polygon points="330,311 345,337 390,259 360,259 " fill="#c80050" /><polygon points="330,155 345,129 390,207 360,207 " fill="#c80050" /><polygon points="300,155 285,181 300,207 330,155 " fill="#c80050" /><polygon points="165,233 195,233 225,285 210,311 " fill="#c8641e" /><polygon points="195,233 255,233 240,207 210,207 " fill="#c8641e" /><polygon points="270,311 330,311 345,337 255,337 " fill="#c8641e" /><polygon points="330,311 300,259 330,259 345,285 " fill="#c8641e" /></svg>