<?xml version="1.0" encoding="UTF-8"?>
<svg xmlns="http://www.w3.org/2000/svg" xmlns:xlink="http://www.w3.org/1999/xlink" viewBox="0 0 2000.48508 1500">
  <defs>
    <style>
      .cls-1 {
        mix-blend-mode: luminosity;
        opacity: .4;
      }

      .cls-1, .cls-2 {
        fill: #fff;
      }

      .cls-3 {
        fill: #ef03ef;
      }

      .cls-4 {
        isolation: isolate;
      }

      .cls-2 {
        mix-blend-mode: overlay;
        opacity: .55;
      }
    </style>
  </defs>
  <g class="cls-4">
    <g id="_IMAGE">
      <image width="2000" height="1500" transform="translate(.48508)" xlink:href="./WEB_Tower_150frames_V2_030.jpg"/>
    </g>
    <g id="_BOTTOM_LAYER">
      <path id="bottom_layer_15" class="cls-1" d="M1282.82094,832.80686s-22.21172,7.90587-33.88228,11.67056-75.67044,20.32937-132.14091,27.85877-93.36452,12.79997-93.36452,12.79997h-3.01176l-42.16462,6.39999-54.21166,6.39999-53.08225,6.77646-67.76457,8.28234-68.14104,7.5294-81.69395,7.90587-9.78822,1.50588-35.38816,6.02352-16.94114-.75294-99.01157-32.75288v-3.7647l-16.94114,.75294-74.16456,.75294-70.77633,.37647h-70.39986L0,894.73614v168.65848s119.1527,8.0941,135.52914,8.0941,125.36445,3.95293,125.36445,3.95293l68.89398,1.12941,72.84691-.5647h71.7175l10.16469-1.12941,91.85864,64.56458,14.87056,8.28234,34.44699-2.25882,28.79994-3.38823,77.36455-20.32937,73.41162-16.37644,61.55282-16.37644,59.8587-13.55291,49.69402-15.81173,47.9999-11.8588,36.70581-12.4235,37.83522-11.29409,26.54112-10.72939,33.88228-11.29409,16.37644-9.31763,20.89408-7.05881,18.3529-8.75292,20.04702-8.18822,13.27056-9.31763,12.14115-6.4941,12.14115-11.57645,11.76468-.84706-1.50588-107.67037Z"/>
      <polygon id="bottom_layer_18" class="cls-1" points="1273.78568 526.36041 1263.24454 515.81927 1239.52689 498.87811 1214.30344 484.94873 1198.8682 475.16052 1173.64469 464.99585 1158.96237 455.96057 1126.96244 444.66644 1099.10367 430.3606 1060.70377 418.3136 1023.05673 402.50183 975.99802 388.94891 927.43344 371.63129 867.9512 355.44312 807.71604 335.11377 731.6691 316.29022 691.01041 304.24323 657.88101 296.14911 641.50461 300.66675 641.50461 309.70203 541.14432 374.96362 540.98715 373.79602 476.04611 370.40778 403.19919 370.40778 328.65818 368.71368 260.89359 370.40778 199.90549 372.10193 130.44681 374.64307 1.69412 383.67834 .84708 554.21918 16.09409 554.21918 71.1528 552.52509 131.29386 547.44275 194.82315 546.59564 260.89359 545.7486 331.19937 545.7486 402.35214 546.59564 473.50492 546.59564 527.246 547.06628 531.01071 547.44275 531.01071 550.078 625.50461 513.93689 641.50461 509.04279 675.95157 510.17224 734.68088 516.94867 804.13956 527.67804 870.20999 538.40747 923.85697 548.00745 979.76273 555.91327 1019.85678 564.38385 1065.03318 571.72504 1095.52719 579.06616 1130.53891 585.84265 1154.8212 593.18384 1183.62113 599.67792 1200.56229 605.6073 1222.86814 610.68964 1233.59751 614.92493 1247.15042 618.59552 1265.78568 626.78375 1275.668 631.86609 1282.72684 634.97198 1284.32682 532.76038 1273.78568 526.36041"/>
    </g>
    <g id="_ACTIVATED_LAYER">
      <path id="activated_layer_15" class="cls-2" d="M1282.82094,832.80686s-22.21172,7.90587-33.88228,11.67056-75.67044,20.32937-132.14091,27.85877-93.36452,12.79997-93.36452,12.79997h-3.01176l-42.16462,6.39999-54.21166,6.39999-53.08225,6.77646-67.76457,8.28234-68.14104,7.5294-81.69395,7.90587-9.78822,1.50588-35.38816,6.02352-16.94114-.75294-99.01157-32.75288v-3.7647l-16.94114,.75294-74.16456,.75294-70.77633,.37647h-70.39986L0,894.73614v168.65848s119.1527,8.0941,135.52914,8.0941,125.36445,3.95293,125.36445,3.95293l68.89398,1.12941,72.84691-.5647h71.7175l10.16469-1.12941,91.85864,64.56458,14.87056,8.28234,34.44699-2.25882,28.79994-3.38823,77.36455-20.32937,73.41162-16.37644,61.55282-16.37644,59.8587-13.55291,49.69402-15.81173,47.9999-11.8588,36.70581-12.4235,37.83522-11.29409,26.54112-10.72939,33.88228-11.29409,16.37644-9.31763,20.89408-7.05881,18.3529-8.75292,20.04702-8.18822,13.27056-9.31763,12.14115-6.4941,12.14115-11.57645,11.76468-.84706-1.50588-107.67037Z"/>
      <polygon id="activated_layer_18" class="cls-2" points="1273.78568 526.36041 1263.24454 515.81927 1239.52689 498.87811 1214.30344 484.94873 1198.8682 475.16052 1173.64469 464.99585 1158.96237 455.96057 1126.96244 444.66644 1099.10367 430.3606 1060.70377 418.3136 1023.05673 402.50183 975.99802 388.94891 927.43344 371.63129 867.9512 355.44312 807.71604 335.11377 731.6691 316.29022 691.01041 304.24323 657.88101 296.14911 641.50461 300.66675 641.50461 309.70203 541.14432 374.96362 540.98715 373.79602 476.04611 370.40778 403.19919 370.40778 328.65818 368.71368 260.89359 370.40778 199.90549 372.10193 130.44681 374.64307 1.69412 383.67834 .84708 554.21918 16.09409 554.21918 71.1528 552.52509 131.29386 547.44275 194.82315 546.59564 260.89359 545.7486 331.19937 545.7486 402.35214 546.59564 473.50492 546.59564 527.246 547.06628 531.01071 547.44275 531.01071 550.078 625.50461 513.93689 641.50461 509.04279 675.95157 510.17224 734.68088 516.94867 804.13956 527.67804 870.20999 538.40747 923.85697 548.00745 979.76273 555.91327 1019.85678 564.38385 1065.03318 571.72504 1095.52719 579.06616 1130.53891 585.84265 1154.8212 593.18384 1183.62113 599.67792 1200.56229 605.6073 1222.86814 610.68964 1233.59751 614.92493 1247.15042 618.59552 1265.78568 626.78375 1275.668 631.86609 1282.72684 634.97198 1284.32682 532.76038 1273.78568 526.36041"/>
    </g>
    <g id="_HOVER_LAYER">
      <path id="hover_layer_15" class="cls-3" d="M1282.82094,832.80686s-22.21172,7.90587-33.88228,11.67056-75.67044,20.32937-132.14091,27.85877-93.36452,12.79997-93.36452,12.79997h-3.01176l-42.16462,6.39999-54.21166,6.39999-53.08225,6.77646-67.76457,8.28234-68.14104,7.5294-81.69395,7.90587-9.78822,1.50588-35.38816,6.02352-16.94114-.75294-99.01157-32.75288v-3.7647l-16.94114,.75294-74.16456,.75294-70.77633,.37647h-70.39986L0,894.73614v168.65848s119.1527,8.0941,135.52914,8.0941,125.36445,3.95293,125.36445,3.95293l68.89398,1.12941,72.84691-.5647h71.7175l10.16469-1.12941,91.85864,64.56458,14.87056,8.28234,34.44699-2.25882,28.79994-3.38823,77.36455-20.32937,73.41162-16.37644,61.55282-16.37644,59.8587-13.55291,49.69402-15.81173,47.9999-11.8588,36.70581-12.4235,37.83522-11.29409,26.54112-10.72939,33.88228-11.29409,16.37644-9.31763,20.89408-7.05881,18.3529-8.75292,20.04702-8.18822,13.27056-9.31763,12.14115-6.4941,12.14115-11.57645,11.76468-.84706-1.50588-107.67037Z"/>
      <polygon id="hover_layer_18" class="cls-3" points="1273.78568 526.36041 1263.24454 515.81927 1239.52689 498.87811 1214.30344 484.94873 1198.8682 475.16052 1173.64469 464.99585 1158.96237 455.96057 1126.96244 444.66644 1099.10367 430.3606 1060.70377 418.3136 1023.05673 402.50183 975.99802 388.94891 927.43344 371.63129 867.9512 355.44312 807.71604 335.11377 731.6691 316.29022 691.01041 304.24323 657.88101 296.14911 641.50461 300.66675 641.50461 309.70203 541.14432 374.96362 540.98715 373.79602 476.04611 370.40778 403.19919 370.40778 328.65818 368.71368 260.89359 370.40778 199.90549 372.10193 130.44681 374.64307 1.69412 383.67834 .84708 554.21918 16.09409 554.21918 71.1528 552.52509 131.29386 547.44275 194.82315 546.59564 260.89359 545.7486 331.19937 545.7486 402.35214 546.59564 473.50492 546.59564 527.246 547.06628 531.01071 547.44275 531.01071 550.078 625.50461 513.93689 641.50461 509.04279 675.95157 510.17224 734.68088 516.94867 804.13956 527.67804 870.20999 538.40747 923.85697 548.00745 979.76273 555.91327 1019.85678 564.38385 1065.03318 571.72504 1095.52719 579.06616 1130.53891 585.84265 1154.8212 593.18384 1183.62113 599.67792 1200.56229 605.6073 1222.86814 610.68964 1233.59751 614.92493 1247.15042 618.59552 1265.78568 626.78375 1275.668 631.86609 1282.72684 634.97198 1284.32682 532.76038 1273.78568 526.36041"/>
    </g>
  </g>
</svg>