<?xml version="1.0" encoding="UTF-8"?>
<svg xmlns="http://www.w3.org/2000/svg" xmlns:xlink="http://www.w3.org/1999/xlink" viewBox="0 0 2000.6403 1500">
  <defs>
    <style>
      .cls-1 {
        mix-blend-mode: luminosity;
        opacity: .4;
      }

      .cls-1, .cls-2 {
        fill: #fff;
      }

      .cls-3 {
        fill: #ef03ef;
      }

      .cls-4 {
        isolation: isolate;
      }

      .cls-2 {
        mix-blend-mode: overlay;
        opacity: .55;
      }
    </style>
  </defs>
  <g class="cls-4">
    <g id="_IMAGE">
      <image width="2000" height="1500" xlink:href="4705515E-E501-419A-A5C2-E6CD779F366C.jpg"/>
    </g>
    <g id="_BOTTOM_LAYER">
      <polygon id="bottom_layer_14" class="cls-1" points="1822.38184 917.32434 1822.38184 915.34784 1761.9585 922.97137 1718.47607 926.35962 1669.34686 928.05371 1616.82928 930.31256 1560.35883 932.57135 1502.19427 933.13605 1437.53552 933.4184 1436.56445 938.97284 1333.34753 972.66541 1322.61816 973.51245 1290.42999 970.97131 1219.27716 961.65363 1158.28906 955.72424 1096.45386 948.94781 1044.78339 940.47723 995.65411 935.3949 950.76007 928.61841 908.40723 922.68903 877.0661 916.75964 837.25439 911.67731 813.5368 905.74786 781.06628 900.94788 759.32513 896.43024 735.60754 891.9126 719.23114 886.83026 700.31354 884.00677 686.76062 878.92444 671.51361 875.81854 661.63123 871.58325 652.8783 867.06561 636.50189 861.70093 639.89014 920.99493 642.43127 951.48895 662.76068 967.58307 689.86652 980.28894 715.2782 994.6889 737.3017 1003.15942 755.93695 1011.63 783.04272 1020.94763 808.45447 1029.41821 841.48969 1037.88879 870.28961 1048.05347 910.94836 1059.91229 948.21887 1069.22992 996.50116 1081.93579 1043.08929 1092.94751 1098.14801 1104.80634 1154.05377 1117.51215 1220.12421 1130.21802 1288.73584 1144.61798 1307.37109 1148.85327 1339.55927 1151.39441 1348.02985 1147.15912 1452.2179 1082.78284 1452.3764 1077.77325 1499.93542 1079.39459 1564.31177 1078.2652 1619.08813 1076.00635 1669.34686 1072.05341 1715.08795 1066.97107 1760.2644 1060.19464 1818.42896 1048.33582 1891.27588 1052.85345 2000.26392 1060.19464 2000.26392 921.27728 1822.38184 917.32434"/>
      <polyline id="bottom_layer_15" class="cls-1" points="636.50189 861.70093 637.06658 768.05404 641.58422 771.44227 661.53712 774.8305 687.51353 776.71285 715.3723 777.08932 737.58402 778.5952 757.16045 778.97167 782.7604 779.72461 807.60741 780.47755 840.36029 782.3599 871.23081 784.24225 911.51308 785.37166 949.16007 786.1246 996.59526 788.38342 1041.77164 788.75989 1097.86565 790.26576 1153.95965 790.64223 1220.59481 793.27752 1278.57117 794.03046 1307.55934 794.40693 1318.85344 794.7834 1427.65322 789.88929 1438.19437 788.75989 1503.32366 788.38342 1564.31177 787.63048 1621.53518 788.38342 1673.11155 787.25401 1724.31145 785.37166 1762.71137 786.50107 1795.84071 785.37166 1825.20536 784.99519 1896.35816 784.99519 1968.26389 786.50107 2000.6403 786.1246 2000.26392 921.27728 1988.12268 920.9008 1949.91099 920.24197 1822.38184 917.32434 1822.38184 915.34784 1761.9585 922.97137 1718.47607 926.35962 1669.34686 928.05371 1616.82928 930.31256 1560.35883 932.57135 1502.19427 933.13605 1437.53552 933.4184 1436.56445 938.97284 1333.34753 972.66541 1322.61816 973.51245 1290.42999 970.97131 1219.27716 961.65363 1158.28906 955.72424 1096.45386 948.94781 1044.78339 940.47723 995.65411 935.3949 950.76007 928.61841 908.40723 922.68903 877.0661 916.75964 837.25439 911.67731 813.5368 905.74786 781.06628 900.94788 759.32513 896.43024 735.60754 891.9126 719.23114 886.83026 700.31354 884.00677 686.76062 878.92444 671.51361 875.81854 652.8783 867.06561 636.50189 861.70093"/>
      <polygon id="bottom_layer_16" class="cls-1" points="2000.6403 786.1246 2000.6403 652.47781 1831.41711 654.73663 1824.07595 652.47781 1774.38193 649.08958 1721.86439 646.26605 1619.65283 642.31312 1434.99438 642.87783 1413.5356 644.00724 1302.85347 623.67787 1293.8182 624.24257 1264.45355 621.98375 1096.17153 633.27785 993.39527 640.61901 951.04242 644.57194 908.68956 647.39546 873.67787 651.9131 838.10147 653.60722 810.99564 656.43074 780.50158 660.38367 759.88986 662.36014 735.88991 664.90131 719.23112 667.44248 704.26644 669.7013 690.14882 672.24247 674.05474 675.34835 634.24305 684.10127 637.06658 768.05404 641.58422 771.44227 661.53712 774.8305 687.51353 776.71285 715.3723 777.08932 737.58402 778.5952 757.16045 778.97167 782.7604 779.72461 807.60741 780.47755 840.36029 782.3599 871.23081 784.24225 911.51308 785.37166 949.16007 786.1246 996.59526 788.38342 1041.77164 788.75989 1097.86565 790.26576 1220.59481 793.27752 1307.55934 794.40693 1318.85344 794.7834 1438.19437 788.75989 1621.53518 788.38342 1724.31145 785.37166 1762.71137 786.50107 1968.26389 786.50107 2000.6403 786.1246"/>
    </g>
    <g id="_ACTIVATED_LAYER">
      <polygon id="activated_layer_14" class="cls-2" points="1822.38184 917.32434 1822.38184 915.34784 1761.9585 922.97137 1718.47607 926.35962 1669.34686 928.05371 1616.82928 930.31256 1560.35883 932.57135 1502.19427 933.13605 1437.53552 933.4184 1436.56445 938.97284 1333.34753 972.66541 1322.61816 973.51245 1290.42999 970.97131 1219.27716 961.65363 1158.28906 955.72424 1096.45386 948.94781 1044.78339 940.47723 995.65411 935.3949 950.76007 928.61841 908.40723 922.68903 877.0661 916.75964 837.25439 911.67731 813.5368 905.74786 781.06628 900.94788 759.32513 896.43024 735.60754 891.9126 719.23114 886.83026 700.31354 884.00677 686.76062 878.92444 671.51361 875.81854 661.63123 871.58325 652.8783 867.06561 636.50189 861.70093 639.89014 920.99493 642.43127 951.48895 662.76068 967.58307 689.86652 980.28894 715.2782 994.6889 737.3017 1003.15942 755.93695 1011.63 783.04272 1020.94763 808.45447 1029.41821 841.48969 1037.88879 870.28961 1048.05347 910.94836 1059.91229 948.21887 1069.22992 996.50116 1081.93579 1043.08929 1092.94751 1098.14801 1104.80634 1154.05377 1117.51215 1220.12421 1130.21802 1288.73584 1144.61798 1307.37109 1148.85327 1339.55927 1151.39441 1348.02985 1147.15912 1452.2179 1082.78284 1452.3764 1077.77325 1499.93542 1079.39459 1564.31177 1078.2652 1619.08813 1076.00635 1669.34686 1072.05341 1715.08795 1066.97107 1760.2644 1060.19464 1818.42896 1048.33582 1891.27588 1052.85345 2000.26392 1060.19464 2000.26392 921.27728 1822.38184 917.32434"/>
      <polyline id="activated_layer_15" class="cls-2" points="636.50189 861.70093 637.06658 768.05404 641.58422 771.44227 661.53712 774.8305 687.51353 776.71285 715.3723 777.08932 737.58402 778.5952 757.16045 778.97167 782.7604 779.72461 807.60741 780.47755 840.36029 782.3599 871.23081 784.24225 911.51308 785.37166 949.16007 786.1246 996.59526 788.38342 1041.77164 788.75989 1097.86565 790.26576 1153.95965 790.64223 1220.59481 793.27752 1278.57117 794.03046 1307.55934 794.40693 1318.85344 794.7834 1427.65322 789.88929 1438.19437 788.75989 1503.32366 788.38342 1564.31177 787.63048 1621.53518 788.38342 1673.11155 787.25401 1724.31145 785.37166 1762.71137 786.50107 1795.84071 785.37166 1825.20536 784.99519 1896.35816 784.99519 1968.26389 786.50107 2000.6403 786.1246 2000.26392 921.27728 1988.12268 920.9008 1949.91099 920.24197 1822.38184 917.32434 1822.38184 915.34784 1761.9585 922.97137 1718.47607 926.35962 1669.34686 928.05371 1616.82928 930.31256 1560.35883 932.57135 1502.19427 933.13605 1437.53552 933.4184 1436.56445 938.97284 1333.34753 972.66541 1322.61816 973.51245 1290.42999 970.97131 1219.27716 961.65363 1158.28906 955.72424 1096.45386 948.94781 1044.78339 940.47723 995.65411 935.3949 950.76007 928.61841 908.40723 922.68903 877.0661 916.75964 837.25439 911.67731 813.5368 905.74786 781.06628 900.94788 759.32513 896.43024 735.60754 891.9126 719.23114 886.83026 700.31354 884.00677 686.76062 878.92444 671.51361 875.81854 652.8783 867.06561 636.50189 861.70093"/>
      <polygon id="activated_layer_16" class="cls-2" points="2000.6403 786.1246 2000.6403 652.47781 1831.41711 654.73663 1824.07595 652.47781 1774.38193 649.08958 1721.86439 646.26605 1619.65283 642.31312 1434.99438 642.87783 1413.5356 644.00724 1302.85347 623.67787 1293.8182 624.24257 1264.45355 621.98375 1096.17153 633.27785 993.39527 640.61901 951.04242 644.57194 908.68956 647.39546 873.67787 651.9131 838.10147 653.60722 810.99564 656.43074 780.50158 660.38367 759.88986 662.36014 735.88991 664.90131 719.23112 667.44248 704.26644 669.7013 690.14882 672.24247 674.05474 675.34835 634.24305 684.10127 637.06658 768.05404 641.58422 771.44227 661.53712 774.8305 687.51353 776.71285 715.3723 777.08932 737.58402 778.5952 757.16045 778.97167 782.7604 779.72461 807.60741 780.47755 840.36029 782.3599 871.23081 784.24225 911.51308 785.37166 949.16007 786.1246 996.59526 788.38342 1041.77164 788.75989 1097.86565 790.26576 1220.59481 793.27752 1307.55934 794.40693 1318.85344 794.7834 1438.19437 788.75989 1621.53518 788.38342 1724.31145 785.37166 1762.71137 786.50107 1968.26389 786.50107 2000.6403 786.1246"/>
    </g>
    <g id="_HOVER_LAYER">
      <polygon id="hover_layer_14" class="cls-3" points="1822.38184 917.32434 1822.38184 915.34784 1761.9585 922.97137 1718.47607 926.35962 1669.34686 928.05371 1616.82928 930.31256 1560.35883 932.57135 1502.19427 933.13605 1437.53552 933.4184 1436.56445 938.97284 1333.34753 972.66541 1322.61816 973.51245 1290.42999 970.97131 1219.27716 961.65363 1158.28906 955.72424 1096.45386 948.94781 1044.78339 940.47723 995.65411 935.3949 950.76007 928.61841 908.40723 922.68903 877.0661 916.75964 837.25439 911.67731 813.5368 905.74786 781.06628 900.94788 759.32513 896.43024 735.60754 891.9126 719.23114 886.83026 700.31354 884.00677 686.76062 878.92444 671.51361 875.81854 661.63123 871.58325 652.8783 867.06561 636.50189 861.70093 639.89014 920.99493 642.43127 951.48895 662.76068 967.58307 689.86652 980.28894 715.2782 994.6889 737.3017 1003.15942 755.93695 1011.63 783.04272 1020.94763 808.45447 1029.41821 841.48969 1037.88879 870.28961 1048.05347 910.94836 1059.91229 948.21887 1069.22992 996.50116 1081.93579 1043.08929 1092.94751 1098.14801 1104.80634 1154.05377 1117.51215 1220.12421 1130.21802 1288.73584 1144.61798 1307.37109 1148.85327 1339.55927 1151.39441 1348.02985 1147.15912 1452.2179 1082.78284 1452.3764 1077.77325 1499.93542 1079.39459 1564.31177 1078.2652 1619.08813 1076.00635 1669.34686 1072.05341 1715.08795 1066.97107 1760.2644 1060.19464 1818.42896 1048.33582 1891.27588 1052.85345 2000.26392 1060.19464 2000.26392 921.27728 1822.38184 917.32434"/>
      <polyline id="hover_layer_15" class="cls-3" points="636.50189 861.70093 637.06658 768.05404 641.58422 771.44227 661.53712 774.8305 687.51353 776.71285 715.3723 777.08932 737.58402 778.5952 757.16045 778.97167 782.7604 779.72461 807.60741 780.47755 840.36029 782.3599 871.23081 784.24225 911.51308 785.37166 949.16007 786.1246 996.59526 788.38342 1041.77164 788.75989 1097.86565 790.26576 1153.95965 790.64223 1220.59481 793.27752 1278.57117 794.03046 1307.55934 794.40693 1318.85344 794.7834 1427.65322 789.88929 1438.19437 788.75989 1503.32366 788.38342 1564.31177 787.63048 1621.53518 788.38342 1673.11155 787.25401 1724.31145 785.37166 1762.71137 786.50107 1795.84071 785.37166 1825.20536 784.99519 1896.35816 784.99519 1968.26389 786.50107 2000.6403 786.1246 2000.26392 921.27728 1988.12268 920.9008 1949.91099 920.24197 1822.38184 917.32434 1822.38184 915.34784 1761.9585 922.97137 1718.47607 926.35962 1669.34686 928.05371 1616.82928 930.31256 1560.35883 932.57135 1502.19427 933.13605 1437.53552 933.4184 1436.56445 938.97284 1333.34753 972.66541 1322.61816 973.51245 1290.42999 970.97131 1219.27716 961.65363 1158.28906 955.72424 1096.45386 948.94781 1044.78339 940.47723 995.65411 935.3949 950.76007 928.61841 908.40723 922.68903 877.0661 916.75964 837.25439 911.67731 813.5368 905.74786 781.06628 900.94788 759.32513 896.43024 735.60754 891.9126 719.23114 886.83026 700.31354 884.00677 686.76062 878.92444 671.51361 875.81854 652.8783 867.06561 636.50189 861.70093"/>
      <polygon id="hover_layer_16" class="cls-3" points="2000.6403 786.1246 2000.6403 652.47781 1831.41711 654.73663 1824.07595 652.47781 1774.38193 649.08958 1721.86439 646.26605 1619.65283 642.31312 1434.99438 642.87783 1413.5356 644.00724 1302.85347 623.67787 1293.8182 624.24257 1264.45355 621.98375 1096.17153 633.27785 993.39527 640.61901 951.04242 644.57194 908.68956 647.39546 873.67787 651.9131 838.10147 653.60722 810.99564 656.43074 780.50158 660.38367 759.88986 662.36014 735.88991 664.90131 719.23112 667.44248 704.26644 669.7013 690.14882 672.24247 674.05474 675.34835 634.24305 684.10127 637.06658 768.05404 641.58422 771.44227 661.53712 774.8305 687.51353 776.71285 715.3723 777.08932 737.58402 778.5952 757.16045 778.97167 782.7604 779.72461 807.60741 780.47755 840.36029 782.3599 871.23081 784.24225 911.51308 785.37166 949.16007 786.1246 996.59526 788.38342 1041.77164 788.75989 1097.86565 790.26576 1220.59481 793.27752 1307.55934 794.40693 1318.85344 794.7834 1438.19437 788.75989 1621.53518 788.38342 1724.31145 785.37166 1762.71137 786.50107 1968.26389 786.50107 2000.6403 786.1246"/>
    </g>
  </g>
</svg>